<svg width="24" height="24" viewBox="0 0 24 24" fill="none" xmlns="http://www.w3.org/2000/svg">
<rect width="24" height="24" rx="6" fill="#E50914"/>
<path d="M11.552 5.328C11.5093 5.424 11.472 5.54133 11.44 5.68C11.4187 5.808 11.392 5.93067 11.36 6.048C11.2747 6.48533 11.1893 7.04 11.104 7.712C11.0187 8.384 10.9493 9.104 10.896 9.872C10.8427 10.6293 10.816 11.376 10.816 12.112C10.816 12.7947 10.8587 13.4613 10.944 14.112C11.04 14.7627 11.1573 15.3867 11.296 15.984C11.4453 16.5707 11.6 17.1147 11.76 17.616L10.608 17.968C10.448 17.488 10.2987 16.9333 10.16 16.304C10.0213 15.664 9.90933 14.9973 9.824 14.304C9.73867 13.6 9.696 12.912 9.696 12.24C9.696 11.6853 9.712 11.12 9.744 10.544C9.78667 9.968 9.83467 9.408 9.888 8.864C9.94133 8.30933 9.98933 7.792 10.032 7.312C10.0853 6.832 10.1333 6.416 10.176 6.064C10.1867 5.92533 10.1973 5.78667 10.208 5.648C10.2187 5.50933 10.2187 5.392 10.208 5.296L11.552 5.328ZM8.96 7.312C9.89867 7.312 10.8267 7.28533 11.744 7.232C12.6613 7.17867 13.5413 7.09867 14.384 6.992C15.2373 6.88533 16.0373 6.74667 16.784 6.576L16.8 7.76C16.224 7.856 15.6 7.94667 14.928 8.032C14.2667 8.10667 13.5893 8.176 12.896 8.24C12.2027 8.29333 11.52 8.336 10.848 8.368C10.176 8.4 9.54133 8.416 8.944 8.416C8.72 8.416 8.448 8.41067 8.128 8.4C7.808 8.37867 7.488 8.36267 7.168 8.352C6.848 8.33067 6.576 8.31467 6.352 8.304L6.32 7.104C6.512 7.136 6.77333 7.168 7.104 7.2C7.43467 7.232 7.77067 7.25867 8.112 7.28C8.45333 7.30133 8.736 7.312 8.96 7.312ZM15.632 9.184C15.6 9.248 15.5627 9.33867 15.52 9.456C15.488 9.56267 15.4507 9.67467 15.408 9.792C15.376 9.89867 15.344 10 15.312 10.096C14.992 11.0773 14.608 11.9787 14.16 12.8C13.712 13.6107 13.2267 14.336 12.704 14.976C12.1813 15.6053 11.6427 16.1333 11.088 16.56C10.5653 16.9547 10 17.2853 9.392 17.552C8.784 17.8187 8.19733 17.952 7.632 17.952C7.29067 17.952 6.976 17.8773 6.688 17.728C6.4 17.5787 6.17067 17.3547 6 17.056C5.82933 16.7573 5.744 16.384 5.744 15.936C5.744 15.392 5.86133 14.8533 6.096 14.32C6.33067 13.776 6.65067 13.264 7.056 12.784C7.472 12.304 7.94133 11.8773 8.464 11.504C8.99733 11.12 9.56267 10.8107 10.16 10.576C10.6827 10.384 11.248 10.2293 11.856 10.112C12.4747 9.99467 13.04 9.936 13.552 9.936C14.5653 9.936 15.44 10.112 16.176 10.464C16.912 10.816 17.4773 11.296 17.872 11.904C18.2773 12.5013 18.48 13.1733 18.48 13.92C18.48 14.496 18.3787 15.0453 18.176 15.568C17.984 16.0907 17.6747 16.5707 17.248 17.008C16.832 17.4347 16.2933 17.8027 15.632 18.112C14.9707 18.4213 14.176 18.6507 13.248 18.8L12.56 17.728C13.5307 17.632 14.3627 17.408 15.056 17.056C15.7493 16.704 16.288 16.256 16.672 15.712C17.056 15.168 17.248 14.5493 17.248 13.856C17.248 13.3333 17.104 12.8533 16.816 12.416C16.528 11.9787 16.1067 11.6267 15.552 11.36C15.008 11.0827 14.336 10.944 13.536 10.944C12.864 10.944 12.24 11.024 11.664 11.184C11.0987 11.344 10.6133 11.5147 10.208 11.696C9.61067 11.9627 9.06133 12.32 8.56 12.768C8.06933 13.216 7.68 13.7013 7.392 14.224C7.104 14.736 6.96 15.2373 6.96 15.728C6.96 16.0587 7.03467 16.3093 7.184 16.48C7.344 16.64 7.57333 16.72 7.872 16.72C8.26667 16.72 8.70933 16.608 9.2 16.384C9.70133 16.16 10.2133 15.8187 10.736 15.36C11.4507 14.7413 12.112 13.984 12.72 13.088C13.3387 12.192 13.8293 11.0933 14.192 9.792C14.2133 9.70667 14.2347 9.61067 14.256 9.504C14.2773 9.39733 14.2987 9.28533 14.32 9.168C14.352 9.05067 14.368 8.94933 14.368 8.864L15.632 9.184Z" fill="white"/>
</svg>
